# xmcd
#
# Track frame offsets:
#	150
#	10390
#	22585
#	35050
#	49900
#	67052
#	80415
#	93332
#	113995
#	122900
#	134445
#	144102
#	161375
#	175100
#	188027
#	200092
#	212640
#	226570
#	237220
#	249847
#
# Disc length: 3504 seconds
#
# Revision: 1
# Processed by: cddbd v1.4PL0 Copyright (c) Steve Scherf et al.
# Submitted via: audiograbber 1.80
#
DISCID=060dae14
DTITLE=Freddy Fender - CD Double Play - 20 Hits
DYEAR=1900
DGENRE=
TTITLE0=Crazy Baby
TTITLE1=Before The Next Teardrop Falls
TTITLE2=Wasted Days and Wasted Nights
TTITLE3=Cielito Lindo
TTITLE4=Secret Love
TTITLE5=Whiskey River
TTITLE6=I Can't Stop Loving You
TTITLE7=Six Days On The Road
TTITLE8=Loving Cajun Style
TTITLE9=Walking Piece Of Heaven
TTITLE10=Sugar Coated Love
TTITLE11=Jambalaya
TTITLE12=The Rains Came
TTITLE13=Mexican Rose
TTITLE14=Tell It Like It Is
TTITLE15=Rancho Grande
TTITLE16=Baby I Want To Love You
TTITLE17=A Man Can Cry
TTITLE18=Enter My Heart
TTITLE19=The Girl Who Waits On Tables
EXTD=
EXTT0=
EXTT1=
EXTT2=
EXTT3=
EXTT4=
EXTT5=
EXTT6=
EXTT7=
EXTT8=
EXTT9=
EXTT10=
EXTT11=
EXTT12=
EXTT13=
EXTT14=
EXTT15=
EXTT16=
EXTT17=
EXTT18=
EXTT19=
PLAYORDER=
